<mxfile host="app.diagrams.net" modified="2021-11-26T09:29:13.990Z" agent="5.0 (Windows NT 10.0; Win64; x64) AppleWebKit/537.36 (KHTML, like Gecko) Chrome/96.0.4664.45 Safari/537.36" etag="RxYdgNZL_C19sKUesPBh" version="15.8.2" type="github">
  <diagram id="-ucUzZEdhBcQn1sxdZIo" name="Page-1">
    <mxGraphModel dx="1888" dy="1639" grid="1" gridSize="10" guides="1" tooltips="1" connect="1" arrows="1" fold="1" page="1" pageScale="1" pageWidth="850" pageHeight="1100" math="0" shadow="0">
      <root>
        <mxCell id="0" />
        <mxCell id="1" parent="0" />
        <mxCell id="YZQltTLQVuVwUxD5mWev-39" value="" style="edgeStyle=orthogonalEdgeStyle;rounded=0;orthogonalLoop=1;jettySize=auto;html=1;" parent="1" source="YZQltTLQVuVwUxD5mWev-2" target="YZQltTLQVuVwUxD5mWev-32" edge="1">
          <mxGeometry relative="1" as="geometry" />
        </mxCell>
        <mxCell id="YZQltTLQVuVwUxD5mWev-2" value="Brands" style="whiteSpace=wrap;html=1;align=center;fillColor=#f5f5f5;fontColor=#333333;strokeColor=#666666;" parent="1" vertex="1">
          <mxGeometry x="410" y="40" width="100" height="40" as="geometry" />
        </mxCell>
        <mxCell id="YZQltTLQVuVwUxD5mWev-46" style="edgeStyle=orthogonalEdgeStyle;rounded=0;orthogonalLoop=1;jettySize=auto;html=1;exitX=0;exitY=0.5;exitDx=0;exitDy=0;entryX=1;entryY=0.5;entryDx=0;entryDy=0;" parent="1" source="YZQltTLQVuVwUxD5mWev-9" target="YZQltTLQVuVwUxD5mWev-44" edge="1">
          <mxGeometry relative="1" as="geometry" />
        </mxCell>
        <mxCell id="YZQltTLQVuVwUxD5mWev-9" value="Drivers" style="whiteSpace=wrap;html=1;align=center;fillColor=#f5f5f5;fontColor=#333333;strokeColor=#666666;" parent="1" vertex="1">
          <mxGeometry x="795" y="345" width="100" height="40" as="geometry" />
        </mxCell>
        <mxCell id="YZQltTLQVuVwUxD5mWev-67" style="edgeStyle=orthogonalEdgeStyle;rounded=0;orthogonalLoop=1;jettySize=auto;html=1;exitX=0;exitY=0.5;exitDx=0;exitDy=0;entryX=1;entryY=0.5;entryDx=0;entryDy=0;" parent="1" source="YZQltTLQVuVwUxD5mWev-10" target="YZQltTLQVuVwUxD5mWev-66" edge="1">
          <mxGeometry relative="1" as="geometry" />
        </mxCell>
        <mxCell id="YZQltTLQVuVwUxD5mWev-68" style="edgeStyle=orthogonalEdgeStyle;rounded=0;orthogonalLoop=1;jettySize=auto;html=1;exitX=0;exitY=0.75;exitDx=0;exitDy=0;entryX=1;entryY=0.5;entryDx=0;entryDy=0;" parent="1" source="YZQltTLQVuVwUxD5mWev-10" target="YZQltTLQVuVwUxD5mWev-65" edge="1">
          <mxGeometry relative="1" as="geometry" />
        </mxCell>
        <mxCell id="YZQltTLQVuVwUxD5mWev-10" value="Engineers" style="whiteSpace=wrap;html=1;align=center;fillColor=#f5f5f5;fontColor=#333333;strokeColor=#666666;" parent="1" vertex="1">
          <mxGeometry x="610" y="410" width="100" height="40" as="geometry" />
        </mxCell>
        <mxCell id="YZQltTLQVuVwUxD5mWev-49" style="edgeStyle=orthogonalEdgeStyle;rounded=0;orthogonalLoop=1;jettySize=auto;html=1;exitX=0.5;exitY=1;exitDx=0;exitDy=0;entryX=0.5;entryY=0;entryDx=0;entryDy=0;" parent="1" source="YZQltTLQVuVwUxD5mWev-12" target="YZQltTLQVuVwUxD5mWev-48" edge="1">
          <mxGeometry relative="1" as="geometry" />
        </mxCell>
        <mxCell id="YZQltTLQVuVwUxD5mWev-12" value="Sponsor" style="whiteSpace=wrap;html=1;align=center;fillColor=#f5f5f5;strokeColor=#666666;fontColor=#333333;" parent="1" vertex="1">
          <mxGeometry x="430" y="240" width="100" height="40" as="geometry" />
        </mxCell>
        <mxCell id="YZQltTLQVuVwUxD5mWev-13" style="edgeStyle=orthogonalEdgeStyle;rounded=0;orthogonalLoop=1;jettySize=auto;html=1;exitX=0.5;exitY=1;exitDx=0;exitDy=0;" parent="1" source="YZQltTLQVuVwUxD5mWev-12" target="YZQltTLQVuVwUxD5mWev-12" edge="1">
          <mxGeometry relative="1" as="geometry" />
        </mxCell>
        <mxCell id="YZQltTLQVuVwUxD5mWev-14" value="Racing cars" style="whiteSpace=wrap;html=1;align=center;fillColor=#f5f5f5;fontColor=#333333;strokeColor=#666666;" parent="1" vertex="1">
          <mxGeometry x="80" y="377.5" width="100" height="40" as="geometry" />
        </mxCell>
        <mxCell id="Iwa2SxdUCxlzkRfFLmhA-21" style="edgeStyle=orthogonalEdgeStyle;rounded=0;orthogonalLoop=1;jettySize=auto;html=1;exitX=0.5;exitY=1;exitDx=0;exitDy=0;entryX=0.5;entryY=0;entryDx=0;entryDy=0;" edge="1" parent="1" source="YZQltTLQVuVwUxD5mWev-16" target="YZQltTLQVuVwUxD5mWev-2">
          <mxGeometry relative="1" as="geometry" />
        </mxCell>
        <mxCell id="YZQltTLQVuVwUxD5mWev-16" value="Brand_Id" style="ellipse;whiteSpace=wrap;html=1;align=center;fillColor=#f8cecc;strokeColor=#b85450;" parent="1" vertex="1">
          <mxGeometry x="430" y="-20" width="50" height="40" as="geometry" />
        </mxCell>
        <mxCell id="Iwa2SxdUCxlzkRfFLmhA-5" style="edgeStyle=orthogonalEdgeStyle;rounded=0;orthogonalLoop=1;jettySize=auto;html=1;exitX=0.5;exitY=1;exitDx=0;exitDy=0;entryX=0.5;entryY=0;entryDx=0;entryDy=0;" edge="1" parent="1" source="YZQltTLQVuVwUxD5mWev-18" target="YZQltTLQVuVwUxD5mWev-14">
          <mxGeometry relative="1" as="geometry" />
        </mxCell>
        <mxCell id="YZQltTLQVuVwUxD5mWev-18" value="Brand_Id" style="ellipse;whiteSpace=wrap;html=1;align=center;fillColor=#d5e8d4;strokeColor=#82b366;" parent="1" vertex="1">
          <mxGeometry x="105" y="317.5" width="50" height="40" as="geometry" />
        </mxCell>
        <mxCell id="Iwa2SxdUCxlzkRfFLmhA-8" style="edgeStyle=orthogonalEdgeStyle;rounded=0;orthogonalLoop=1;jettySize=auto;html=1;exitX=1;exitY=0.5;exitDx=0;exitDy=0;entryX=0;entryY=0;entryDx=0;entryDy=0;" edge="1" parent="1" source="YZQltTLQVuVwUxD5mWev-19" target="YZQltTLQVuVwUxD5mWev-14">
          <mxGeometry relative="1" as="geometry" />
        </mxCell>
        <mxCell id="YZQltTLQVuVwUxD5mWev-19" value="Tires" style="ellipse;whiteSpace=wrap;html=1;align=center;fillColor=#b1ddf0;strokeColor=#10739e;" parent="1" vertex="1">
          <mxGeometry x="-50" y="357.5" width="100" height="40" as="geometry" />
        </mxCell>
        <mxCell id="Iwa2SxdUCxlzkRfFLmhA-9" style="edgeStyle=orthogonalEdgeStyle;rounded=0;orthogonalLoop=1;jettySize=auto;html=1;exitX=1;exitY=0;exitDx=0;exitDy=0;entryX=0;entryY=0.75;entryDx=0;entryDy=0;" edge="1" parent="1" source="YZQltTLQVuVwUxD5mWev-20" target="YZQltTLQVuVwUxD5mWev-14">
          <mxGeometry relative="1" as="geometry" />
        </mxCell>
        <mxCell id="YZQltTLQVuVwUxD5mWev-20" value="Speed" style="ellipse;whiteSpace=wrap;html=1;align=center;fillColor=#b1ddf0;strokeColor=#10739e;" parent="1" vertex="1">
          <mxGeometry x="-50" y="402.5" width="100" height="40" as="geometry" />
        </mxCell>
        <mxCell id="Iwa2SxdUCxlzkRfFLmhA-11" style="edgeStyle=orthogonalEdgeStyle;rounded=0;orthogonalLoop=1;jettySize=auto;html=1;exitX=0.5;exitY=0;exitDx=0;exitDy=0;entryX=0;entryY=1;entryDx=0;entryDy=0;" edge="1" parent="1" source="YZQltTLQVuVwUxD5mWev-22" target="YZQltTLQVuVwUxD5mWev-14">
          <mxGeometry relative="1" as="geometry" />
        </mxCell>
        <mxCell id="YZQltTLQVuVwUxD5mWev-22" value="Body Material" style="ellipse;whiteSpace=wrap;html=1;align=center;fillColor=#b1ddf0;strokeColor=#10739e;" parent="1" vertex="1">
          <mxGeometry x="-20" y="467.5" width="100" height="40" as="geometry" />
        </mxCell>
        <mxCell id="YZQltTLQVuVwUxD5mWev-33" style="edgeStyle=orthogonalEdgeStyle;rounded=0;orthogonalLoop=1;jettySize=auto;html=1;exitX=0;exitY=0.5;exitDx=0;exitDy=0;entryX=0.75;entryY=0;entryDx=0;entryDy=0;" parent="1" source="YZQltTLQVuVwUxD5mWev-32" target="YZQltTLQVuVwUxD5mWev-14" edge="1">
          <mxGeometry relative="1" as="geometry" />
        </mxCell>
        <mxCell id="YZQltTLQVuVwUxD5mWev-36" style="edgeStyle=orthogonalEdgeStyle;rounded=0;orthogonalLoop=1;jettySize=auto;html=1;exitX=1;exitY=0.5;exitDx=0;exitDy=0;entryX=0.5;entryY=0;entryDx=0;entryDy=0;" parent="1" source="YZQltTLQVuVwUxD5mWev-32" target="YZQltTLQVuVwUxD5mWev-9" edge="1">
          <mxGeometry relative="1" as="geometry" />
        </mxCell>
        <mxCell id="YZQltTLQVuVwUxD5mWev-38" style="edgeStyle=orthogonalEdgeStyle;rounded=0;orthogonalLoop=1;jettySize=auto;html=1;exitX=1;exitY=1;exitDx=0;exitDy=0;entryX=0.25;entryY=0;entryDx=0;entryDy=0;" parent="1" source="YZQltTLQVuVwUxD5mWev-32" target="YZQltTLQVuVwUxD5mWev-10" edge="1">
          <mxGeometry relative="1" as="geometry" />
        </mxCell>
        <mxCell id="YZQltTLQVuVwUxD5mWev-40" value="" style="edgeStyle=orthogonalEdgeStyle;rounded=0;orthogonalLoop=1;jettySize=auto;html=1;" parent="1" source="YZQltTLQVuVwUxD5mWev-32" target="YZQltTLQVuVwUxD5mWev-12" edge="1">
          <mxGeometry relative="1" as="geometry" />
        </mxCell>
        <mxCell id="YZQltTLQVuVwUxD5mWev-32" value="contain" style="shape=rhombus;perimeter=rhombusPerimeter;whiteSpace=wrap;html=1;align=center;fillColor=#e3c800;fontColor=#000000;strokeColor=#B09500;" parent="1" vertex="1">
          <mxGeometry x="400" y="110" width="120" height="60" as="geometry" />
        </mxCell>
        <mxCell id="Iwa2SxdUCxlzkRfFLmhA-40" style="edgeStyle=orthogonalEdgeStyle;rounded=0;orthogonalLoop=1;jettySize=auto;html=1;exitX=0;exitY=1;exitDx=0;exitDy=0;entryX=1;entryY=0.5;entryDx=0;entryDy=0;" edge="1" parent="1" source="YZQltTLQVuVwUxD5mWev-41" target="YZQltTLQVuVwUxD5mWev-9">
          <mxGeometry relative="1" as="geometry" />
        </mxCell>
        <mxCell id="YZQltTLQVuVwUxD5mWev-41" value="Brand_Id" style="ellipse;whiteSpace=wrap;html=1;align=center;fillColor=#d5e8d4;strokeColor=#82b366;" parent="1" vertex="1">
          <mxGeometry x="920" y="330" width="50" height="40" as="geometry" />
        </mxCell>
        <mxCell id="Iwa2SxdUCxlzkRfFLmhA-14" style="edgeStyle=orthogonalEdgeStyle;rounded=0;orthogonalLoop=1;jettySize=auto;html=1;exitX=0;exitY=0;exitDx=0;exitDy=0;entryX=0.75;entryY=1;entryDx=0;entryDy=0;" edge="1" parent="1" source="YZQltTLQVuVwUxD5mWev-42" target="YZQltTLQVuVwUxD5mWev-10">
          <mxGeometry relative="1" as="geometry" />
        </mxCell>
        <mxCell id="YZQltTLQVuVwUxD5mWev-42" value="Brand_Id" style="ellipse;whiteSpace=wrap;html=1;align=center;fillColor=#d5e8d4;strokeColor=#82b366;" parent="1" vertex="1">
          <mxGeometry x="680" y="470" width="50" height="40" as="geometry" />
        </mxCell>
        <mxCell id="Iwa2SxdUCxlzkRfFLmhA-19" style="edgeStyle=orthogonalEdgeStyle;rounded=0;orthogonalLoop=1;jettySize=auto;html=1;exitX=1;exitY=0.5;exitDx=0;exitDy=0;entryX=0.25;entryY=0;entryDx=0;entryDy=0;" edge="1" parent="1" source="YZQltTLQVuVwUxD5mWev-43" target="YZQltTLQVuVwUxD5mWev-12">
          <mxGeometry relative="1" as="geometry" />
        </mxCell>
        <mxCell id="YZQltTLQVuVwUxD5mWev-43" value="Brand_Id" style="ellipse;whiteSpace=wrap;html=1;align=center;fillColor=#d5e8d4;strokeColor=#82b366;" parent="1" vertex="1">
          <mxGeometry x="380" y="200" width="50" height="40" as="geometry" />
        </mxCell>
        <mxCell id="YZQltTLQVuVwUxD5mWev-47" style="edgeStyle=orthogonalEdgeStyle;rounded=0;orthogonalLoop=1;jettySize=auto;html=1;exitX=0;exitY=0.5;exitDx=0;exitDy=0;entryX=1;entryY=0.5;entryDx=0;entryDy=0;" parent="1" source="YZQltTLQVuVwUxD5mWev-44" target="YZQltTLQVuVwUxD5mWev-14" edge="1">
          <mxGeometry relative="1" as="geometry" />
        </mxCell>
        <mxCell id="YZQltTLQVuVwUxD5mWev-44" value="drive" style="shape=rhombus;perimeter=rhombusPerimeter;whiteSpace=wrap;html=1;align=center;fillColor=#e3c800;fontColor=#000000;strokeColor=#B09500;" parent="1" vertex="1">
          <mxGeometry x="370" y="340" width="95" height="50" as="geometry" />
        </mxCell>
        <mxCell id="YZQltTLQVuVwUxD5mWev-50" style="edgeStyle=orthogonalEdgeStyle;rounded=0;orthogonalLoop=1;jettySize=auto;html=1;exitX=0;exitY=0.5;exitDx=0;exitDy=0;entryX=1;entryY=0;entryDx=0;entryDy=0;" parent="1" source="YZQltTLQVuVwUxD5mWev-48" target="YZQltTLQVuVwUxD5mWev-14" edge="1">
          <mxGeometry relative="1" as="geometry" />
        </mxCell>
        <mxCell id="YZQltTLQVuVwUxD5mWev-51" style="edgeStyle=orthogonalEdgeStyle;rounded=0;orthogonalLoop=1;jettySize=auto;html=1;exitX=1;exitY=0.5;exitDx=0;exitDy=0;entryX=0.25;entryY=0;entryDx=0;entryDy=0;" parent="1" source="YZQltTLQVuVwUxD5mWev-48" target="YZQltTLQVuVwUxD5mWev-9" edge="1">
          <mxGeometry relative="1" as="geometry" />
        </mxCell>
        <mxCell id="YZQltTLQVuVwUxD5mWev-48" value="invest" style="shape=rhombus;perimeter=rhombusPerimeter;whiteSpace=wrap;html=1;align=center;fillColor=#e3c800;fontColor=#000000;strokeColor=#B09500;" parent="1" vertex="1">
          <mxGeometry x="440" y="295" width="80" height="45" as="geometry" />
        </mxCell>
        <mxCell id="Iwa2SxdUCxlzkRfFLmhA-20" style="edgeStyle=orthogonalEdgeStyle;rounded=0;orthogonalLoop=1;jettySize=auto;html=1;exitX=0;exitY=0.5;exitDx=0;exitDy=0;entryX=1;entryY=0.5;entryDx=0;entryDy=0;" edge="1" parent="1" source="YZQltTLQVuVwUxD5mWev-56" target="YZQltTLQVuVwUxD5mWev-2">
          <mxGeometry relative="1" as="geometry" />
        </mxCell>
        <mxCell id="YZQltTLQVuVwUxD5mWev-56" value="Brand_name" style="ellipse;whiteSpace=wrap;html=1;align=center;fillColor=#b1ddf0;strokeColor=#10739e;" parent="1" vertex="1">
          <mxGeometry x="530" y="40" width="100" height="40" as="geometry" />
        </mxCell>
        <mxCell id="Iwa2SxdUCxlzkRfFLmhA-12" value="" style="edgeStyle=orthogonalEdgeStyle;rounded=0;orthogonalLoop=1;jettySize=auto;html=1;" edge="1" parent="1" source="YZQltTLQVuVwUxD5mWev-57" target="YZQltTLQVuVwUxD5mWev-14">
          <mxGeometry relative="1" as="geometry" />
        </mxCell>
        <mxCell id="YZQltTLQVuVwUxD5mWev-57" value="Car_name" style="ellipse;whiteSpace=wrap;html=1;align=center;fillColor=#b1ddf0;strokeColor=#10739e;" parent="1" vertex="1">
          <mxGeometry x="80" y="477.5" width="100" height="40" as="geometry" />
        </mxCell>
        <mxCell id="Iwa2SxdUCxlzkRfFLmhA-6" style="edgeStyle=orthogonalEdgeStyle;rounded=0;orthogonalLoop=1;jettySize=auto;html=1;exitX=1;exitY=1;exitDx=0;exitDy=0;entryX=0.25;entryY=0;entryDx=0;entryDy=0;" edge="1" parent="1" source="YZQltTLQVuVwUxD5mWev-58" target="YZQltTLQVuVwUxD5mWev-14">
          <mxGeometry relative="1" as="geometry" />
        </mxCell>
        <mxCell id="YZQltTLQVuVwUxD5mWev-58" value="Car_Id" style="ellipse;whiteSpace=wrap;html=1;align=center;fillColor=#f8cecc;strokeColor=#b85450;" parent="1" vertex="1">
          <mxGeometry x="57.5" y="295" width="40" height="35" as="geometry" />
        </mxCell>
        <mxCell id="Iwa2SxdUCxlzkRfFLmhA-39" style="edgeStyle=orthogonalEdgeStyle;rounded=0;orthogonalLoop=1;jettySize=auto;html=1;exitX=0;exitY=0.5;exitDx=0;exitDy=0;entryX=1;entryY=0.75;entryDx=0;entryDy=0;" edge="1" parent="1" source="YZQltTLQVuVwUxD5mWev-62" target="YZQltTLQVuVwUxD5mWev-9">
          <mxGeometry relative="1" as="geometry" />
        </mxCell>
        <mxCell id="YZQltTLQVuVwUxD5mWev-62" value="Driver_Id" style="ellipse;whiteSpace=wrap;html=1;align=center;fillColor=#f8cecc;strokeColor=#b85450;" parent="1" vertex="1">
          <mxGeometry x="920" y="370" width="55" height="40" as="geometry" />
        </mxCell>
        <mxCell id="Iwa2SxdUCxlzkRfFLmhA-18" style="edgeStyle=orthogonalEdgeStyle;rounded=0;orthogonalLoop=1;jettySize=auto;html=1;exitX=1;exitY=0.5;exitDx=0;exitDy=0;entryX=0;entryY=0.5;entryDx=0;entryDy=0;" edge="1" parent="1" source="YZQltTLQVuVwUxD5mWev-63" target="YZQltTLQVuVwUxD5mWev-12">
          <mxGeometry relative="1" as="geometry" />
        </mxCell>
        <mxCell id="YZQltTLQVuVwUxD5mWev-63" value="Spnsr_Id" style="ellipse;whiteSpace=wrap;html=1;align=center;fillColor=#f8cecc;strokeColor=#b85450;" parent="1" vertex="1">
          <mxGeometry x="327.5" y="240" width="55" height="40" as="geometry" />
        </mxCell>
        <mxCell id="Iwa2SxdUCxlzkRfFLmhA-15" style="edgeStyle=orthogonalEdgeStyle;rounded=0;orthogonalLoop=1;jettySize=auto;html=1;exitX=0;exitY=0.5;exitDx=0;exitDy=0;entryX=1;entryY=0.5;entryDx=0;entryDy=0;" edge="1" parent="1" source="YZQltTLQVuVwUxD5mWev-64" target="YZQltTLQVuVwUxD5mWev-10">
          <mxGeometry relative="1" as="geometry" />
        </mxCell>
        <mxCell id="YZQltTLQVuVwUxD5mWev-64" value="Enginr_Id" style="ellipse;whiteSpace=wrap;html=1;align=center;fillColor=#f8cecc;strokeColor=#b85450;" parent="1" vertex="1">
          <mxGeometry x="720" y="410" width="55" height="40" as="geometry" />
        </mxCell>
        <mxCell id="YZQltTLQVuVwUxD5mWev-70" style="edgeStyle=orthogonalEdgeStyle;rounded=0;orthogonalLoop=1;jettySize=auto;html=1;exitX=0;exitY=0.5;exitDx=0;exitDy=0;entryX=1;entryY=1;entryDx=0;entryDy=0;" parent="1" source="YZQltTLQVuVwUxD5mWev-65" target="YZQltTLQVuVwUxD5mWev-14" edge="1">
          <mxGeometry relative="1" as="geometry" />
        </mxCell>
        <mxCell id="YZQltTLQVuVwUxD5mWev-65" value="fix" style="shape=rhombus;perimeter=rhombusPerimeter;whiteSpace=wrap;html=1;align=center;fillColor=#e3c800;fontColor=#000000;strokeColor=#B09500;" parent="1" vertex="1">
          <mxGeometry x="470" y="450" width="80" height="45" as="geometry" />
        </mxCell>
        <mxCell id="YZQltTLQVuVwUxD5mWev-69" style="edgeStyle=orthogonalEdgeStyle;rounded=0;orthogonalLoop=1;jettySize=auto;html=1;exitX=0;exitY=0.5;exitDx=0;exitDy=0;entryX=1;entryY=0.75;entryDx=0;entryDy=0;" parent="1" source="YZQltTLQVuVwUxD5mWev-66" target="YZQltTLQVuVwUxD5mWev-14" edge="1">
          <mxGeometry relative="1" as="geometry" />
        </mxCell>
        <mxCell id="YZQltTLQVuVwUxD5mWev-66" value="create" style="shape=rhombus;perimeter=rhombusPerimeter;whiteSpace=wrap;html=1;align=center;fillColor=#e3c800;fontColor=#000000;strokeColor=#B09500;" parent="1" vertex="1">
          <mxGeometry x="470" y="390" width="80" height="45" as="geometry" />
        </mxCell>
        <mxCell id="Iwa2SxdUCxlzkRfFLmhA-16" style="edgeStyle=orthogonalEdgeStyle;rounded=0;orthogonalLoop=1;jettySize=auto;html=1;exitX=0;exitY=0.5;exitDx=0;exitDy=0;entryX=1;entryY=0.5;entryDx=0;entryDy=0;" edge="1" parent="1" source="YZQltTLQVuVwUxD5mWev-72" target="YZQltTLQVuVwUxD5mWev-12">
          <mxGeometry relative="1" as="geometry" />
        </mxCell>
        <mxCell id="YZQltTLQVuVwUxD5mWev-72" value="Sponser_name" style="ellipse;whiteSpace=wrap;html=1;align=center;fillColor=#b1ddf0;strokeColor=#10739e;" parent="1" vertex="1">
          <mxGeometry x="540" y="240" width="90" height="40" as="geometry" />
        </mxCell>
        <mxCell id="Iwa2SxdUCxlzkRfFLmhA-38" style="edgeStyle=orthogonalEdgeStyle;rounded=0;orthogonalLoop=1;jettySize=auto;html=1;exitX=0;exitY=0;exitDx=0;exitDy=0;entryX=0.75;entryY=1;entryDx=0;entryDy=0;" edge="1" parent="1" source="YZQltTLQVuVwUxD5mWev-73" target="YZQltTLQVuVwUxD5mWev-9">
          <mxGeometry relative="1" as="geometry" />
        </mxCell>
        <mxCell id="YZQltTLQVuVwUxD5mWev-73" value="Driver_name" style="ellipse;whiteSpace=wrap;html=1;align=center;fillColor=#b1ddf0;strokeColor=#10739e;" parent="1" vertex="1">
          <mxGeometry x="880" y="415" width="90" height="40" as="geometry" />
        </mxCell>
        <mxCell id="Iwa2SxdUCxlzkRfFLmhA-41" style="edgeStyle=orthogonalEdgeStyle;rounded=0;orthogonalLoop=1;jettySize=auto;html=1;exitX=0;exitY=1;exitDx=0;exitDy=0;entryX=1;entryY=0;entryDx=0;entryDy=0;" edge="1" parent="1" source="YZQltTLQVuVwUxD5mWev-74" target="YZQltTLQVuVwUxD5mWev-9">
          <mxGeometry relative="1" as="geometry" />
        </mxCell>
        <mxCell id="YZQltTLQVuVwUxD5mWev-74" value="Car_Id" style="ellipse;whiteSpace=wrap;html=1;align=center;fillColor=#d5e8d4;strokeColor=#82b366;" parent="1" vertex="1">
          <mxGeometry x="910" y="277.5" width="50" height="40" as="geometry" />
        </mxCell>
        <mxCell id="Iwa2SxdUCxlzkRfFLmhA-35" style="edgeStyle=orthogonalEdgeStyle;rounded=0;orthogonalLoop=1;jettySize=auto;html=1;exitX=0;exitY=0;exitDx=0;exitDy=0;entryX=0.5;entryY=1;entryDx=0;entryDy=0;" edge="1" parent="1" source="YZQltTLQVuVwUxD5mWev-76" target="YZQltTLQVuVwUxD5mWev-9">
          <mxGeometry relative="1" as="geometry" />
        </mxCell>
        <mxCell id="YZQltTLQVuVwUxD5mWev-76" value="Driver_rank" style="ellipse;whiteSpace=wrap;html=1;align=center;fillColor=#b1ddf0;strokeColor=#10739e;" parent="1" vertex="1">
          <mxGeometry x="830" y="455" width="100" height="40" as="geometry" />
        </mxCell>
        <mxCell id="Iwa2SxdUCxlzkRfFLmhA-13" style="edgeStyle=orthogonalEdgeStyle;rounded=0;orthogonalLoop=1;jettySize=auto;html=1;exitX=0.5;exitY=0;exitDx=0;exitDy=0;entryX=0;entryY=1;entryDx=0;entryDy=0;" edge="1" parent="1" source="YZQltTLQVuVwUxD5mWev-77" target="YZQltTLQVuVwUxD5mWev-10">
          <mxGeometry relative="1" as="geometry" />
        </mxCell>
        <mxCell id="YZQltTLQVuVwUxD5mWev-77" value="Engineer_name" style="ellipse;whiteSpace=wrap;html=1;align=center;fillColor=#b1ddf0;strokeColor=#10739e;" parent="1" vertex="1">
          <mxGeometry x="580" y="480" width="90" height="40" as="geometry" />
        </mxCell>
        <mxCell id="Iwa2SxdUCxlzkRfFLmhA-2" style="edgeStyle=orthogonalEdgeStyle;rounded=0;orthogonalLoop=1;jettySize=auto;html=1;exitX=1;exitY=0.5;exitDx=0;exitDy=0;entryX=0;entryY=0.75;entryDx=0;entryDy=0;" edge="1" parent="1" source="Iwa2SxdUCxlzkRfFLmhA-1" target="YZQltTLQVuVwUxD5mWev-2">
          <mxGeometry relative="1" as="geometry" />
        </mxCell>
        <mxCell id="Iwa2SxdUCxlzkRfFLmhA-1" value="Brand_rank" style="ellipse;whiteSpace=wrap;html=1;align=center;fillColor=#b1ddf0;strokeColor=#10739e;" vertex="1" parent="1">
          <mxGeometry x="280" y="50" width="100" height="40" as="geometry" />
        </mxCell>
        <mxCell id="Iwa2SxdUCxlzkRfFLmhA-24" style="edgeStyle=orthogonalEdgeStyle;rounded=0;orthogonalLoop=1;jettySize=auto;html=1;exitX=1;exitY=1;exitDx=0;exitDy=0;entryX=0;entryY=0;entryDx=0;entryDy=0;" edge="1" parent="1" source="Iwa2SxdUCxlzkRfFLmhA-22" target="YZQltTLQVuVwUxD5mWev-14">
          <mxGeometry relative="1" as="geometry" />
        </mxCell>
        <mxCell id="Iwa2SxdUCxlzkRfFLmhA-22" value="Spnsr_Id" style="ellipse;whiteSpace=wrap;html=1;align=center;fillColor=#d5e8d4;strokeColor=#82b366;" vertex="1" parent="1">
          <mxGeometry x="2.5" y="307.5" width="55" height="40" as="geometry" />
        </mxCell>
        <mxCell id="Iwa2SxdUCxlzkRfFLmhA-33" style="edgeStyle=orthogonalEdgeStyle;rounded=0;orthogonalLoop=1;jettySize=auto;html=1;exitX=0.5;exitY=1;exitDx=0;exitDy=0;entryX=0.75;entryY=0;entryDx=0;entryDy=0;" edge="1" parent="1" source="Iwa2SxdUCxlzkRfFLmhA-23" target="YZQltTLQVuVwUxD5mWev-9">
          <mxGeometry relative="1" as="geometry" />
        </mxCell>
        <mxCell id="Iwa2SxdUCxlzkRfFLmhA-23" value="Spnsr_Id" style="ellipse;whiteSpace=wrap;html=1;align=center;fillColor=#d5e8d4;strokeColor=#82b366;" vertex="1" parent="1">
          <mxGeometry x="850" y="267.5" width="55" height="40" as="geometry" />
        </mxCell>
      </root>
    </mxGraphModel>
  </diagram>
</mxfile>
